<svg xmlns="http://www.w3.org/2000/svg" width="48" height="48" viewBox="0 0 48 48" fill="none">
  <defs>
    <linearGradient id="bg" x1="0" y1="0" x2="1" y2="1">
      <stop offset="0" stop-color="#0a9396"/>
      <stop offset="0.55" stop-color="#0a5566"/>
      <stop offset="1" stop-color="#04262f"/>
    </linearGradient>
    <linearGradient id="sun" x1="0" y1="0" x2="0" y2="1">
      <stop offset="0" stop-color="#ffd98a"/>
      <stop offset="1" stop-color="#e9785a"/>
    </linearGradient>
    <clipPath id="clip"><rect width="48" height="48" rx="13"/></clipPath>
  </defs>
  <g clip-path="url(#clip)">
    <rect width="48" height="48" rx="13" fill="url(#bg)"/>
    <circle cx="24" cy="26" r="11.5" stroke="rgba(255,255,255,0.22)" stroke-width="1.2"/>
    <g stroke="url(#sun)" stroke-width="1.8" stroke-linecap="round">
      <line x1="24" y1="9" x2="24" y2="6.2"/>
      <line x1="15.5" y1="11.4" x2="14" y2="9.2"/>
      <line x1="32.5" y1="11.4" x2="34" y2="9.2"/>
    </g>
    <circle cx="24" cy="26" r="7.6" fill="url(#sun)"/>
    <rect x="6" y="26.4" width="36" height="16" fill="url(#bg)"/>
    <path d="M5 30c3.4 0 3.4-2.6 6.8-2.6S15.2 30 18.6 30s3.4-2.6 6.8-2.6S28.8 30 32.2 30s3.4-2.6 6.8-2.6S42.4 30 45 30" stroke="#ffffff" stroke-width="2.4" stroke-linecap="round"/>
    <path d="M5 36c3.4 0 3.4-2.3 6.8-2.3S15.2 36 18.6 36s3.4-2.3 6.8-2.3S28.8 36 32.2 36s3.4-2.3 6.8-2.3S42.4 36 45 36" stroke="#7fdbd0" stroke-width="1.8" stroke-linecap="round" opacity="0.85"/>
  </g>
</svg>
